<svg width="365" height="435" viewBox="0 0 365 435" fill="none" xmlns="http://www.w3.org/2000/svg">
<path d="M164.551 352H177.993V411.809H109.055L164.551 352Z" fill="#000091" stroke="#000091" stroke-width="15.9149" stroke-linecap="round" stroke-linejoin="round"/>
<path d="M220.381 352H206.94V411.809H275.877L220.381 352Z" fill="#000091" stroke="#000091" stroke-width="15.9149" stroke-linecap="round" stroke-linejoin="round"/>
<path d="M85.3484 392.396C111.06 392.396 131.903 381.979 131.903 369.13C131.903 356.281 111.06 345.865 85.3484 345.865C59.6371 345.865 38.7939 356.281 38.7939 369.13C38.7939 381.979 59.6371 392.396 85.3484 392.396Z" fill="#000091"/>
<path d="M143.895 357.262C153.045 339.694 131.959 310.607 96.798 292.296C61.6373 273.984 25.7167 273.382 16.567 290.951C7.41729 308.52 28.5034 337.607 63.664 355.918C98.8247 374.23 134.745 374.831 143.895 357.262Z" fill="#000091"/>
<path d="M174.135 94.0978C183.559 84.2847 199.363 84.643 208.333 94.8731L281.412 178.219C286.552 184.081 294.29 186.972 302.014 185.915L307.475 185.168C326.455 182.571 340.234 202.782 330.882 219.501L310.934 255.163C307.694 260.955 307.088 267.857 309.269 274.125L346.634 381.515C353.417 401.01 333.289 418.999 314.675 410.078L232.046 370.476C228.914 368.975 225.485 368.196 222.012 368.196H164.491C162.1 368.196 159.724 368.565 157.446 369.291L90.1865 390.712C70.9058 396.853 53.5459 377.105 62.1071 358.77L93.697 291.118C98.8967 279.982 94.5167 266.723 83.7068 260.877L54.4093 245.03C38.2766 236.304 38.1581 213.197 54.2004 204.306L81.2666 189.305C83.2978 188.18 85.1485 186.756 86.757 185.081L174.135 94.0978Z" fill="#F5F5FE"/>
<path d="M220.969 147.148C241.901 144.843 257.937 134.501 256.786 124.047C255.635 113.594 237.733 106.988 216.801 109.293C195.868 111.598 179.833 121.941 180.984 132.394C182.135 142.848 200.037 149.453 220.969 147.148Z" fill="#F5F5FE"/>
<path d="M232.018 121.839C258.595 111.001 275.749 91.448 270.332 78.1657C264.916 64.8834 238.98 62.9016 212.404 73.7393C185.827 84.5769 168.674 104.13 174.09 117.412C179.507 130.695 205.442 132.676 232.018 121.839Z" fill="#F5F5FE"/>
<path d="M217.57 142.676C231.315 146.479 245.619 144.192 255.887 139.829" stroke="#000091" stroke-width="7.16402" stroke-linecap="round" stroke-linejoin="round"/>
<path d="M242.232 65.0385L220.717 6.23291C218.64 0.539034 211.826 -1.77119 206.715 1.49579L112.93 61.4682C108.683 64.1751 107.773 69.9857 110.97 73.8827L148.377 119.434L242.256 65.0385H242.232Z" fill="#000091"/>
<mask id="mask0_2003_2133" style="mask-type:luminance" maskUnits="userSpaceOnUse" x="109" y="0" width="134" height="120">
<path d="M242.232 65.0385L220.717 6.23291C218.64 0.539034 211.826 -1.77119 206.715 1.49579L112.93 61.4682C108.683 64.1751 107.773 69.9857 110.97 73.8827L148.377 119.434L242.256 65.0385H242.232Z" fill="white"/>
</mask>
<g mask="url(#mask0_2003_2133)">
<path d="M215.299 60.5683C223.233 57.4655 226.772 47.5554 223.205 38.4334C219.637 29.3114 210.314 24.4319 202.38 27.5347C194.446 30.6375 190.907 40.5477 194.474 49.6696C198.042 58.7916 207.365 63.6711 215.299 60.5683Z" fill="#F5F5FE"/>
</g>
<path d="M281.179 37.1758L150.617 108.466" stroke="#000091" stroke-width="16.7083" stroke-linecap="round" stroke-linejoin="round"/>
<rect x="204.018" y="40.2441" width="4.95557" height="13.7655" transform="rotate(-26.6074 204.018 40.2441)" fill="#000091"/>
<rect x="214.36" y="39.9897" width="4.95557" height="13.7655" transform="rotate(63.3926 214.36 39.9897)" fill="#000091"/>
<path d="M247.216 298.973C242.151 274.502 225 261.884 225 261.884C215.935 263.522 187.251 263.522 178.208 261.884C178.208 261.884 161.078 274.524 155.992 298.973C152.673 314.932 163.1 328.274 178.442 328.466C188.273 328.593 196.805 323.189 201.593 314.996C206.402 323.167 214.935 328.593 224.745 328.466C240.087 328.253 250.514 314.932 247.195 298.973H247.216Z" fill="#F95C5E"/>
<path d="M277.752 238.179C252.068 218.986 167.739 210.559 168.037 255.649C168.228 284.866 235.79 300.591 247.046 259.82C284.263 259.82 292.817 249.457 277.752 238.201V238.179Z" fill="#F7CE39"/>
<path d="M187.975 256.906C188.933 255.756 189.975 254.65 191.103 253.671C191.38 253.416 191.677 253.182 191.954 252.948C192.124 252.82 192.274 252.671 192.444 252.565C192.231 252.714 192.082 252.841 192.38 252.628C193.018 252.16 193.678 251.713 194.359 251.288C194.997 250.884 195.657 250.522 196.316 250.181C196.657 250.011 196.997 249.841 197.338 249.692C197.487 249.628 197.636 249.543 197.785 249.479C197.87 249.437 198.53 249.16 198.083 249.351C197.678 249.522 198.189 249.309 198.274 249.288C198.466 249.203 198.657 249.139 198.87 249.075C199.231 248.947 199.572 248.819 199.934 248.713C200.7 248.479 201.466 248.266 202.232 248.075C203.892 247.67 205.041 245.691 204.509 244.053C203.956 242.329 202.274 241.351 200.487 241.776C193.869 243.351 187.699 247.117 183.336 252.352C182.251 253.671 181.953 255.693 183.336 256.969C184.549 258.076 186.783 258.374 187.954 256.969L187.975 256.906Z" fill="#000091"/>
<path d="M190.38 250.585C193.189 261.395 202.552 269.843 213.893 270.375C224.554 270.885 234.108 262.906 235.066 252.245C235.236 250.479 233.449 248.968 231.789 248.968C229.896 248.968 228.683 250.479 228.512 252.245C227.831 259.714 220.298 264.416 213.276 263.821C205.063 263.118 198.658 256.586 196.658 248.861C195.615 244.797 189.295 246.521 190.359 250.606L190.38 250.585Z" fill="#000091"/>
<path d="M227.788 186.493C236.344 186.493 243.28 197.134 243.28 210.261C243.28 223.388 236.344 234.031 227.788 234.031C219.666 234.031 213.008 224.439 212.354 212.236C213.267 212.321 214.208 212.367 215.17 212.367C223.725 212.367 230.66 208.862 230.66 204.537C230.66 200.213 223.725 196.707 215.17 196.707C215.135 196.707 215.099 196.707 215.064 196.707C217.862 190.534 222.516 186.493 227.788 186.493Z" fill="#000091"/>
<path d="M189.4 179.085C197.956 179.085 204.892 189.726 204.892 202.853C204.892 215.98 197.956 226.623 189.4 226.623C181.278 226.623 174.62 217.032 173.966 204.829C174.879 204.913 175.82 204.96 176.782 204.96C185.337 204.96 192.272 201.454 192.272 197.129C192.272 192.805 185.337 189.299 176.782 189.299C176.747 189.299 176.711 189.299 176.676 189.299C179.474 183.127 184.129 179.085 189.4 179.085Z" fill="#000091"/>
<path d="M94.7683 137.608C97.0052 137.608 99.0354 138.153 100.727 139.262C109.186 144.826 107.363 163.041 97.2497 182.478C97.5505 182.478 97.87 182.459 98.1708 182.459C101.742 182.459 104.825 183.474 107.006 185.655C111.367 190.016 111.16 197.873 107.288 206.2C110.333 206.407 112.983 207.422 114.919 209.358C121.799 216.238 117.344 231.821 104.975 244.19C97.4001 251.841 89.0728 255.168 81.0275 255.168C56.1396 255.168 33.9396 223.362 45.1805 189.395C45.2933 188.813 45.4625 188.23 45.6881 187.628C46.0265 186.801 46.4023 185.955 46.7783 185.109C46.9286 184.752 47.0792 184.395 47.2296 184.038C47.4176 183.624 47.5866 183.211 47.7746 182.797C47.7934 182.741 47.8123 182.685 47.8499 182.628C49.974 178.079 52.5681 173.399 55.632 168.756C68.0572 149.883 84.035 137.589 94.7683 137.589M94.7683 130.841C81.2529 130.841 63.6586 144.262 49.974 165.053C46.8912 169.733 44.1654 174.583 41.8533 179.489C41.7969 179.602 41.7406 179.715 41.6842 179.827C41.6842 179.865 41.6278 179.959 41.609 180.015C41.4774 180.297 41.3647 180.56 41.2519 180.842L41.064 181.275L40.9323 181.576C40.8007 181.876 40.6692 182.158 40.5564 182.459L40.2556 183.154C39.9548 183.812 39.673 184.47 39.4098 185.128C39.0902 185.918 38.8458 186.726 38.639 187.628C32.4359 206.727 35.3495 227.272 46.4589 242.63C55.3313 254.905 67.9256 261.935 81.0275 261.935C91.4413 261.935 101.385 257.442 109.788 248.946C125.258 233.475 129.525 214.396 119.713 204.565C118.622 203.475 117.401 202.554 116.028 201.802C118.171 193.324 116.724 185.805 111.799 180.88C110.427 179.508 108.829 178.399 107.062 177.553C115.634 157.214 114.825 140.447 104.468 133.623C101.667 131.781 98.4151 130.841 94.7871 130.841H94.7683Z" fill="#000091"/>
<path d="M81.7981 178.588C88.5464 205.055 54.9367 224.548 47.4741 209.209C44.5981 203.306 42.1167 196.521 40.2369 189.171C33.4886 162.704 37.3422 138.869 48.8087 135.955C60.2752 133.041 75.0501 152.121 81.7796 178.588H81.7981Z" fill="#F5F5FE"/>
<mask id="mask1_2003_2133" style="mask-type:luminance" maskUnits="userSpaceOnUse" x="36" y="135" width="47" height="80">
<path d="M81.7981 178.588C88.5464 205.055 54.9367 224.548 47.4741 209.209C44.5981 203.306 42.1167 196.521 40.2369 189.171C33.4886 162.704 37.3422 138.869 48.8087 135.955C60.2752 133.041 75.0501 152.121 81.7796 178.588H81.7981Z" fill="white"/>
</mask>
<g mask="url(#mask1_2003_2133)">
<path d="M94.7683 137.61C97.0052 137.61 99.0354 138.155 100.727 139.264C109.186 144.828 107.363 163.043 97.2497 182.479C97.5505 182.479 97.87 182.46 98.1708 182.46C101.742 182.46 104.825 183.476 107.006 185.656C111.367 190.017 111.16 197.874 107.288 206.202C110.333 206.408 112.983 207.424 114.919 209.36C121.799 216.24 117.344 231.823 104.975 244.191C97.4001 251.842 89.0728 255.169 81.0275 255.169C56.1396 255.169 33.9396 223.364 45.1805 189.397C45.2933 188.814 45.4625 188.231 45.6881 187.63C46.0265 186.803 46.4023 185.957 46.7783 185.111C46.9286 184.754 47.0792 184.397 47.2296 184.039C47.4176 183.626 47.5866 183.212 47.7746 182.799C47.7934 182.742 47.8123 182.686 47.8499 182.63C49.974 178.081 52.5681 173.4 55.632 168.757C68.0572 149.884 84.035 137.591 94.7683 137.591M94.7683 130.843C81.2529 130.843 63.6586 144.264 49.974 165.054C46.8912 169.735 44.1654 174.584 41.8533 179.49C41.7969 179.603 41.7406 179.716 41.6842 179.829C41.6842 179.866 41.6278 179.96 41.609 180.017C41.4774 180.299 41.3647 180.562 41.2519 180.844L41.064 181.276L40.9323 181.577C40.8007 181.878 40.6692 182.16 40.5564 182.46L40.2556 183.156C39.9548 183.814 39.673 184.472 39.4098 185.13C39.0902 185.919 38.8458 186.727 38.639 187.63C32.4359 206.728 35.3495 227.274 46.4589 242.631C55.3313 254.906 67.9256 261.936 81.0275 261.936C91.4413 261.936 101.385 257.444 109.788 248.947C125.258 233.477 129.525 214.397 119.713 204.566C118.622 203.476 117.401 202.555 116.028 201.803C118.171 193.325 116.724 185.806 111.799 180.881C110.427 179.509 108.829 178.4 107.062 177.554C115.634 157.215 114.825 140.448 104.468 133.625C101.667 131.782 98.4151 130.843 94.7871 130.843H94.7683Z" fill="#000091"/>
</g>
<path d="M114.919 209.359C112.983 207.423 110.333 206.408 107.288 206.201C111.16 197.874 111.367 190.016 107.006 185.655C104.637 183.287 101.216 182.291 97.2497 182.479C107.363 163.042 109.186 144.846 100.727 139.263C90.8397 132.759 70.6512 145.955 55.6132 168.775C52.568 173.418 49.974 178.08 47.831 182.648C47.831 182.648 47.7934 182.742 47.7558 182.798C47.5678 183.212 47.3988 183.625 47.2108 184.039C47.0604 184.396 46.8913 184.753 46.7597 185.11C46.4025 185.956 46.0076 186.802 45.6693 187.629C45.4249 188.231 45.2745 188.813 45.1617 189.396C30.2741 234.36 73.9784 275.507 104.957 244.21C117.325 231.841 121.78 216.239 114.901 209.378L114.919 209.359Z" fill="#F5F5FE"/>
<path d="M309.097 68.9486L290.431 88.8304L338.653 87.6233L299.998 118.897L334.403 129.486L303.147 139.278L319.743 151.623" stroke="#000091" stroke-width="4.90657" stroke-linecap="round" stroke-linejoin="round"/>
</svg>
