<svg width="428" height="464" viewBox="0 0 428 464" fill="none" xmlns="http://www.w3.org/2000/svg">
<path d="M334.747 280.104C361.607 285.546 395.566 279.986 402.271 275.333C403.908 274.209 405.466 272.927 406.55 271.251C407.635 269.575 408.148 267.485 407.576 265.592C406.905 263.404 404.933 261.866 402.922 260.781C398.544 258.376 393.456 257.271 388.466 257.626C402.665 252.796 421.459 244.692 417.042 230.436C413.393 218.645 388.21 227.617 388.21 227.617C388.21 227.617 412.289 214.031 405.722 200.643C396.69 182.247 386.317 191.987 360.463 211.784C345.909 222.924 318.833 243.095 318.833 243.095" fill="#F5F5FE"/>
<path d="M334.353 281.524C350.109 284.639 366.556 284.442 382.412 282.194C388.052 281.405 393.83 280.419 399.174 278.428C403.986 276.634 409.409 272.71 409.291 267.031C409.212 262.91 405.564 260.308 402.192 258.73C397.893 256.719 393.199 255.852 388.466 256.128L388.86 259.026C395.605 256.719 402.428 254.136 408.423 250.232C413.354 247.018 418.225 242.523 419.033 236.391C419.704 231.363 417.87 226.216 413.018 224.146C408.443 222.194 403.059 222.707 398.287 223.515C394.757 224.107 391.207 224.955 387.835 226.157L388.979 228.859C395.21 225.329 401.423 220.4 405.347 214.366C407.891 210.462 409.271 205.671 407.575 201.156C406.096 197.232 403.296 192.796 399.549 190.686C391.128 185.934 380.755 194.57 374.385 199.263C363.145 207.544 352.18 216.22 341.018 224.6C333.386 230.337 325.735 236.055 318.083 241.754C316.565 242.878 318.044 245.441 319.582 244.317C334.648 233.098 349.715 221.859 364.604 210.403C370.146 206.124 375.648 201.747 381.465 197.863C385.015 195.497 389.137 192.717 393.515 192.342C397.281 192.007 400.062 194.294 402.093 197.271C404.834 201.274 406.353 205.395 404.321 210.068C401.284 217.087 393.968 222.628 387.46 226.315C386.04 227.123 386.987 229.588 388.604 229.016C394.718 226.847 401.856 225.132 408.344 225.96C413.077 226.571 416.016 229.174 416.213 234.123C416.43 239.92 411.934 244.337 407.457 247.334C401.541 251.317 394.777 253.88 388.072 256.167C386.573 256.68 386.711 259.164 388.466 259.065C393.515 258.789 409.271 261.057 405.86 269.318C404.124 273.558 399.372 275.372 395.309 276.555C383.812 279.887 371.427 280.853 359.496 280.853C351.332 280.853 343.148 280.242 335.122 278.664C333.268 278.29 332.459 281.149 334.333 281.524H334.353Z" fill="#F5F5FE"/>
<path d="M175.808 376.081H190.17V439.982H116.516L175.808 376.081Z" fill="#000091" stroke="#000091" stroke-width="17.0036" stroke-linecap="round" stroke-linejoin="round"/>
<path d="M235.458 376.081H221.096V439.982H294.75L235.458 376.081Z" fill="#000091" stroke="#000091" stroke-width="17.0036" stroke-linecap="round" stroke-linejoin="round"/>
<path d="M91.1871 419.241C118.657 419.241 140.926 408.112 140.926 394.383C140.926 380.655 118.657 369.526 91.1871 369.526C63.7168 369.526 41.4478 380.655 41.4478 394.383C41.4478 408.112 63.7168 419.241 91.1871 419.241Z" fill="#000091"/>
<path d="M153.739 381.704C163.515 362.933 140.986 331.857 103.42 312.293C65.8541 292.729 27.476 292.086 17.7004 310.857C7.92472 329.627 30.4533 360.704 68.0194 380.268C105.586 399.832 143.964 400.475 153.739 381.704Z" fill="#000091"/>
<path d="M181.006 105.784C192.711 93.5959 212.911 96.4254 220.817 111.36L284.377 231.437C290.636 243.262 305.147 247.991 317.172 242.125L336.489 232.702C347.326 227.416 360.399 230.797 367.314 240.676C374.847 251.437 372.558 266.223 362.123 274.202L334.571 295.271C325.399 302.285 322.28 314.701 327.048 325.217L361.783 401.818C371.346 422.907 349.356 444.436 328.474 434.428L247.92 395.821C244.574 394.217 240.911 393.385 237.201 393.385H175.744C173.19 393.385 170.651 393.779 168.217 394.554L96.3563 417.441C75.7566 424.002 57.209 402.903 66.356 383.314L100.107 311.033C105.662 299.136 100.983 284.97 89.4334 278.723L58.1315 261.793C40.8952 252.47 40.7685 227.782 57.9083 218.283L86.8262 202.256C88.9963 201.053 90.9736 199.532 92.6922 197.742L181.006 105.784Z" fill="#F5F5FE"/>
<path d="M236.086 157.215C258.45 154.753 275.583 143.702 274.353 132.534C273.124 121.366 253.997 114.308 231.633 116.771C209.268 119.234 192.135 130.284 193.365 141.452C194.595 152.621 213.722 159.678 236.086 157.215Z" fill="#F5F5FE"/>
<path d="M247.892 130.173C276.286 118.594 294.613 97.7032 288.827 83.5123C283.04 69.3213 255.33 67.204 226.935 78.783C198.541 90.3621 180.213 111.253 186 125.444C191.787 139.635 219.497 141.752 247.892 130.173Z" fill="#F5F5FE"/>
<path d="M232.454 152.436C247.139 156.499 262.422 154.056 273.392 149.394" stroke="#000091" stroke-width="7.65412" stroke-linecap="round" stroke-linejoin="round"/>
<path d="M258.804 69.488L235.817 6.65932C233.598 0.575911 226.317 -1.89236 220.857 1.59812L120.656 65.6734C116.118 68.5655 115.146 74.7736 118.561 78.9372L158.527 127.604L258.829 69.488H258.804Z" fill="#000091"/>
<mask id="mask0_2003_2054" style="mask-type:luminance" maskUnits="userSpaceOnUse" x="116" y="0" width="143" height="128">
<path d="M258.804 69.488L235.817 6.65932C233.598 0.575911 226.317 -1.89236 220.857 1.59812L120.656 65.6734C116.118 68.5655 115.146 74.7736 118.561 78.9372L158.527 127.604L258.829 69.488H258.804Z" fill="white"/>
</mask>
<g mask="url(#mask0_2003_2054)">
<path d="M230.027 64.7129C238.504 61.3979 242.286 50.8097 238.474 41.0637C234.662 31.3177 224.701 26.1043 216.225 29.4194C207.748 32.7345 203.966 43.3226 207.778 53.0686C211.59 62.8147 221.551 68.028 230.027 64.7129Z" fill="#F5F5FE"/>
</g>
<path d="M300.415 39.7192L160.92 115.886" stroke="#000091" stroke-width="17.8513" stroke-linecap="round" stroke-linejoin="round"/>
<rect x="217.976" y="42.9973" width="5.29459" height="14.7072" transform="rotate(-26.6074 217.976 42.9973)" fill="#000091"/>
<rect x="229.025" y="42.7256" width="5.29459" height="14.7072" transform="rotate(63.3926 229.025 42.7256)" fill="#000091"/>
<path d="M182.121 205.542C187.649 202.955 194.519 204.927 200.475 210.051C192.867 214.289 188.41 220.538 190.343 224.668C192.457 229.184 201.414 229.454 210.349 225.271C210.527 225.188 210.703 225.101 210.878 225.016C216.092 238.036 213.815 251.229 205.362 255.186C196.428 259.369 183.983 251.647 177.565 237.939C171.147 224.23 173.187 209.725 182.121 205.542Z" fill="#000091"/>
<path d="M227.787 184.164C233.316 181.576 240.186 183.548 246.143 188.674C238.548 192.911 234.101 199.152 236.032 203.278C238.147 207.795 247.103 208.065 256.038 203.882C256.209 203.802 256.377 203.719 256.546 203.637C261.759 216.657 259.481 229.851 251.028 233.808C242.094 237.99 229.648 230.268 223.23 216.56C216.813 202.852 218.853 188.347 227.787 184.164Z" fill="#000091"/>
<path d="M299.462 293.073C284.117 269.737 261.111 263.648 261.111 263.648C252.379 269.071 222.545 280.87 212.457 282.892C212.457 282.892 199.848 303.063 204.63 330.585C207.747 348.544 224.067 358.107 240.103 352.017C250.357 348.116 257.018 338.982 258.636 328.492C266.987 335.009 278.097 337.15 288.256 332.964C304.125 326.446 309.478 308.296 299.462 293.073Z" fill="#F95C5E"/>
<path d="M306.219 217.31C271.627 207.938 180.482 233.842 199.349 280.584C211.577 310.889 288.28 299.423 283.213 252.42C321.898 237.125 326.537 222.805 306.243 217.31H306.219Z" fill="#F7CE39"/>
<path d="M220.736 273.233C220.879 272.805 221.022 272.4 221.165 271.996C221.236 271.829 221.284 271.663 221.355 271.496C221.355 271.449 221.712 270.687 221.474 271.211C221.236 271.734 221.545 271.02 221.593 270.925C221.688 270.735 221.783 270.521 221.878 270.331C222.045 269.974 222.211 269.617 222.402 269.26C223.187 267.738 224.091 266.287 225.114 264.907C225.161 264.836 225.542 264.36 225.233 264.741C224.876 265.169 225.376 264.574 225.423 264.479C225.709 264.146 225.97 263.813 226.28 263.48C226.827 262.861 227.398 262.243 227.993 261.672C228.587 261.101 229.206 260.53 229.848 260.007C230.015 259.864 230.181 259.722 230.348 259.579C230.419 259.531 230.491 259.46 230.562 259.412C230.776 259.246 230.705 259.293 230.348 259.579C230.562 259.579 231.228 258.937 231.419 258.818C232.989 257.723 233.845 255.583 232.727 253.822C231.728 252.276 229.396 251.348 227.731 252.514C221.141 257.105 216.216 263.646 213.718 271.282C213.123 273.09 214.408 275.35 216.264 275.778C218.262 276.23 220.118 275.183 220.76 273.233H220.736Z" fill="#000091"/>
<path d="M220.237 265.812C227.446 275.731 240.198 281.178 252.236 277.349C263.585 273.733 271.198 261.649 267.724 249.898C266.392 245.402 259.35 247.305 260.682 251.849C263.085 260.008 257.589 268.238 249.667 270.522C241.102 272.972 231.704 269.285 226.518 262.149C225.352 260.555 223.354 259.77 221.522 260.84C219.952 261.768 219.047 264.242 220.213 265.836L220.237 265.812Z" fill="#000091"/>
<path d="M369.533 189.459C369.544 195.815 373.314 201.563 379.139 204.108L404.865 215.343C407.754 216.605 410.987 214.485 410.982 211.332L410.866 147.95C410.855 141.59 407.082 135.839 401.252 133.297L375.529 122.078C372.64 120.819 369.408 122.939 369.414 126.091L369.533 189.459Z" fill="#000091" stroke="#000091" stroke-width="5.82471" stroke-linecap="round" stroke-linejoin="round"/>
<ellipse cx="387.459" cy="194.94" rx="5.82471" ry="8.00897" transform="rotate(1.41753 387.459 194.94)" fill="#F95C5E"/>
<path d="M136.143 328.396C138.51 336.145 139.042 346.418 134.881 353.733C133.994 355.29 132.475 356.947 130.483 356.493C128.768 356.099 127.387 354.502 126.263 353.26C123.601 350.282 121.885 346.654 120.958 342.79C120.15 339.379 115.141 340.266 115.003 343.598C114.766 349.71 114.332 355.862 112.853 361.797C111.67 366.549 109.678 372.346 104.965 374.712C101.297 376.546 97.7274 376.092 95.6567 372.661C93.5861 369.231 92.817 364.617 92.462 360.515C92.2056 357.676 92.0873 354.797 92.2451 351.958C92.4226 348.567 87.0783 347.837 86.2894 351.15C85.2442 355.566 83.7258 359.944 81.734 364.025C80.2746 367.002 78.5589 370.059 76.0347 372.287C73.8654 374.18 71.8342 374.594 69.1719 373.549C65.5433 372.129 63.9657 377.965 67.5548 379.385C81.8917 385.024 89.7011 363.02 92.107 352.786L86.1514 351.978C85.757 359.786 86.2894 369.546 90.7266 376.23C94.0199 381.219 99.522 382.855 105.221 381.1C111.512 379.148 115.239 373.568 117.389 367.673C120.17 360.062 120.741 351.643 121.057 343.618L115.101 344.426C117.093 352.826 126.815 368.639 137.05 360.456C141.488 356.907 142.868 350.302 143.558 344.959C144.347 338.866 143.775 332.694 141.981 326.838C140.837 323.131 134.999 324.709 136.143 328.455V328.396Z" fill="#000091"/>
</svg>
