<svg width="403" height="451" viewBox="0 0 403 451" fill="none" xmlns="http://www.w3.org/2000/svg">
<path d="M170.927 365.639H184.89V427.766H113.281L170.927 365.639Z" fill="#000091" stroke="#000091" stroke-width="16.5315" stroke-linecap="round" stroke-linejoin="round"/>
<path d="M228.92 365.639H214.958V427.766H286.567L228.92 365.639Z" fill="#000091" stroke="#000091" stroke-width="16.5315" stroke-linecap="round" stroke-linejoin="round"/>
<path d="M88.6553 407.601C115.363 407.601 137.014 396.781 137.014 383.434C137.014 370.087 115.363 359.267 88.6553 359.267C61.9477 359.267 40.2969 370.087 40.2969 383.434C40.2969 396.781 61.9477 407.601 88.6553 407.601Z" fill="#000091"/>
<path d="M149.471 371.107C158.975 352.857 137.072 322.644 100.549 303.623C64.0257 284.602 26.7132 283.977 17.2089 302.227C7.70471 320.476 29.6078 350.69 66.131 369.711C102.654 388.732 139.967 389.357 149.471 371.107Z" fill="#000091"/>
<path d="M180.882 97.7433C190.671 87.5499 207.088 87.9221 216.406 98.5486L292.316 185.124C297.655 191.213 305.694 194.216 313.717 193.118L319.389 192.342C339.104 189.644 353.418 210.639 343.704 228.006L322.982 265.05C319.617 271.066 318.987 278.235 321.253 284.746L360.065 396.298C367.111 416.548 346.203 435.234 326.868 425.968L241.037 384.831C237.784 383.272 234.222 382.463 230.615 382.463H170.864C168.381 382.463 165.913 382.846 163.547 383.6L93.6809 405.851C73.6531 412.23 55.6205 391.716 64.5135 372.671L97.3274 302.398C102.729 290.83 98.1789 277.058 86.9502 270.985L56.5174 254.524C39.7596 245.46 39.6365 221.457 56.3003 212.222L84.4154 196.64C86.5252 195.471 88.4477 193.992 90.1185 192.252L180.882 97.7433Z" fill="#F5F5FE"/>
<path d="M62.5315 379.386C71.7184 380.041 80.4932 375.411 86.5532 368.696C93.3161 361.182 96.8793 351.583 100.273 342.251L92.9525 341.257C92.1041 352.141 98.2125 374.974 113.629 367.678C119.616 364.842 123.616 357.837 126.234 352.019C129.288 345.184 130.912 337.96 131.009 330.47C131.082 325.671 123.64 325.671 123.567 330.47C123.422 340.457 120.101 351.995 112.805 359.219C111.35 360.649 109.12 362.176 106.963 361.376C105.097 360.673 103.982 358.443 103.157 356.795C100.733 351.971 99.982 346.614 100.394 341.281C100.733 336.845 94.4311 336.603 93.0737 340.287C88.1045 353.934 80.2266 373.253 62.5073 371.969C57.732 371.629 57.7563 379.071 62.5073 379.41L62.5315 379.386Z" fill="#000091"/>
<path d="M229.531 152.85C251.275 150.456 267.932 139.712 266.736 128.854C265.541 117.996 246.945 111.134 225.201 113.528C203.458 115.923 186.801 126.666 187.997 137.525C189.192 148.383 207.788 155.244 229.531 152.85Z" fill="#F5F5FE"/>
<path d="M241.009 126.559C268.616 115.301 286.434 94.9905 280.808 81.1935C275.181 67.3966 248.241 65.338 220.635 76.5956C193.029 87.8532 175.21 108.164 180.836 121.961C186.463 135.758 213.403 137.816 241.009 126.559Z" fill="#F5F5FE"/>
<path d="M313.376 269.613C344.999 259.723 377.729 234.041 382.119 225.205C383.197 223.06 384.101 220.795 384.273 218.387C384.445 215.98 383.77 213.467 382.061 211.796C380.075 209.868 377.09 209.388 374.327 209.412C368.288 209.416 362.255 211.211 357.177 214.495C369.401 201.103 384.585 181.566 371.598 169.04C360.861 158.677 339.415 182.857 339.415 182.857C339.415 182.857 357.002 154.433 342.244 144.08C321.955 129.858 316.644 146.221 300.796 182.258C291.873 202.541 274.949 239.687 274.949 239.687" fill="#F5F5FE"/>
<path d="M226.001 148.203C240.278 152.154 255.137 149.778 265.802 145.246" stroke="#000091" stroke-width="7.44162" stroke-linecap="round" stroke-linejoin="round"/>
<path d="M251.618 67.5587L229.269 6.47443C227.112 0.559921 220.034 -1.83982 214.725 1.55375L117.306 63.8501C112.894 66.6619 111.949 72.6976 115.269 76.7456L154.126 124.062L251.643 67.5587H251.618Z" fill="#000091"/>
<mask id="mask0_2003_1913" style="mask-type:luminance" maskUnits="userSpaceOnUse" x="113" y="0" width="139" height="125">
<path d="M251.618 67.5587L229.269 6.47443C227.112 0.559921 220.034 -1.83982 214.725 1.55375L117.306 63.8501C112.894 66.6619 111.949 72.6976 115.269 76.7456L154.126 124.062L251.643 67.5587H251.618Z" fill="white"/>
</mask>
<g mask="url(#mask0_2003_1913)">
<path d="M223.64 62.9161C231.881 59.693 235.558 49.3989 231.852 39.9234C228.147 30.448 218.462 25.3794 210.221 28.6024C201.979 31.8254 198.303 42.1196 202.008 51.5951C205.714 61.0705 215.399 66.1391 223.64 62.9161Z" fill="#F5F5FE"/>
</g>
<path d="M292.074 38.6169L156.453 112.67" stroke="#000091" stroke-width="17.3557" stroke-linecap="round" stroke-linejoin="round"/>
<path d="M176.321 195.828C182.35 195.828 187.67 200.47 190.853 207.55C182.271 208.155 175.666 211.879 175.666 216.384C175.666 221.31 183.566 225.303 193.312 225.303C193.506 225.303 193.7 225.299 193.893 225.296C193.104 239.129 185.541 249.979 176.321 249.979C166.575 249.979 158.674 237.858 158.674 222.905C158.674 207.951 166.575 195.828 176.321 195.828Z" fill="#000091"/>
<path d="M226.132 195.828C232.163 195.828 237.484 200.471 240.667 207.552C232.096 208.162 225.503 211.883 225.503 216.384C225.503 221.31 233.403 225.303 243.149 225.303C243.336 225.303 243.521 225.299 243.706 225.296C242.917 239.129 235.353 249.979 226.132 249.979C216.387 249.979 208.486 237.858 208.486 222.905C208.486 207.952 216.387 195.829 226.132 195.828Z" fill="#000091"/>
<path d="M259.959 322.648C254.19 294.772 234.653 280.398 234.653 280.398C224.327 282.265 191.652 282.265 181.35 280.398C181.35 280.398 161.837 294.797 156.043 322.648C152.262 340.828 164.14 356.026 181.616 356.245C192.815 356.39 202.535 350.233 207.989 340.901C213.468 350.209 223.188 356.39 234.362 356.245C251.839 356.002 263.717 340.828 259.935 322.648H259.959Z" fill="#F95C5E"/>
<path d="M277.517 255.426C248.26 233.562 152.197 223.963 152.537 275.327C152.755 308.608 229.716 326.521 242.539 280.078C284.935 280.078 294.679 268.273 277.517 255.45V255.426Z" fill="#F7CE39"/>
<path d="M177.989 275.166C181.188 287.48 191.854 297.103 204.774 297.709C216.918 298.291 227.801 289.201 228.892 277.057C229.086 275.045 227.05 273.324 225.159 273.324C223.002 273.324 221.62 275.045 221.426 277.057C220.651 285.565 212.07 290.922 204.071 290.243C194.714 289.443 187.418 282.001 185.139 273.202C183.952 268.573 176.752 270.536 177.964 275.19L177.989 275.166Z" fill="#000091"/>
<path d="M178.506 281.482C179.597 280.173 180.785 278.913 182.069 277.798C182.384 277.507 182.724 277.24 183.039 276.974C183.233 276.828 183.403 276.658 183.596 276.537C183.354 276.707 183.184 276.852 183.524 276.61C184.251 276.077 185.002 275.568 185.778 275.083C186.505 274.622 187.257 274.21 188.008 273.822C188.396 273.629 188.784 273.435 189.172 273.265C189.341 273.192 189.511 273.095 189.681 273.023C189.778 272.974 190.529 272.659 190.02 272.877C189.559 273.071 190.141 272.829 190.238 272.804C190.456 272.707 190.674 272.635 190.917 272.562C191.329 272.417 191.717 272.271 192.129 272.15C193.001 271.883 193.874 271.641 194.747 271.423C196.637 270.962 197.946 268.708 197.34 266.841C196.71 264.878 194.795 263.763 192.759 264.248C185.221 266.041 178.191 270.332 173.222 276.295C171.986 277.798 171.646 280.101 173.222 281.555C174.603 282.815 177.149 283.155 178.482 281.555L178.506 281.482Z" fill="#000091"/>
<rect x="211.924" y="41.8022" width="5.14759" height="14.2989" transform="rotate(-26.6074 211.924 41.8022)" fill="#000091"/>
<rect x="222.667" y="41.5396" width="5.14759" height="14.2989" transform="rotate(63.3926 222.667 41.5396)" fill="#000091"/>
</svg>
